<svg xmlns="http://www.w3.org/2000/svg" version="1.1" xmlns:xlink="http://www.w3.org/1999/xlink" xmlns:svgjs="http://svgjs.dev/svgjs" width="1500" height="208" viewBox="0 0 1500 208"><g transform="matrix(1,0,0,1,-0.9090909090909918,-1.199548296903842)"><svg viewBox="0 0 396 55" data-background-color="#000000" preserveAspectRatio="xMidYMid meet" height="208" width="1500" xmlns="http://www.w3.org/2000/svg" xmlns:xlink="http://www.w3.org/1999/xlink"><g id="tight-bounds" transform="matrix(1,0,0,1,0.2400000000000091,0.31718825158515074)"><svg viewBox="0 0 395.52 54.36562349682968" height="54.36562349682968" width="395.52"><g><svg viewBox="0 0 395.52 54.36562349682968" height="54.36562349682968" width="395.52"><g><svg viewBox="0 0 395.52 54.36562349682968" height="54.36562349682968" width="395.52"><g id="textblocktransform"><svg viewBox="0 0 395.52 54.36562349682968" height="54.36562349682968" width="395.52" id="textblock"><g><svg viewBox="0 0 395.52 54.36562349682968" height="54.36562349682968" width="395.52"><g transform="matrix(1,0,0,1,0,0)"><svg width="395.52" viewBox="2.15 -38.23 334.96000000000004 46.04" height="54.36562349682968" data-palette-color="url(#57312084-a5e9-44a8-97df-fb80b90bf493)"></svg></g></svg></g></svg></g></svg></g></svg></g><defs></defs><mask id="1e17cbb3-59e9-411e-96ec-a7523d24e240"><g id="SvgjsG2284"><svg viewBox="0 0 395.52 54.36562349682968" height="54.36562349682968" width="395.52"><g><svg viewBox="0 0 395.52 54.36562349682968" height="54.36562349682968" width="395.52"><g><svg viewBox="0 0 395.52 54.36562349682968" height="54.36562349682968" width="395.52"><g id="SvgjsG2283"><svg viewBox="0 0 395.52 54.36562349682968" height="54.36562349682968" width="395.52" id="SvgjsSvg2282"><g><svg viewBox="0 0 395.52 54.36562349682968" height="54.36562349682968" width="395.52"><g transform="matrix(1,0,0,1,0,0)"><svg width="395.52" viewBox="2.15 -38.23 334.96000000000004 46.04" height="54.36562349682968" data-palette-color="url(#57312084-a5e9-44a8-97df-fb80b90bf493)"><path d="M32.32-5.79L32.32-5.79Q33.33-5.79 33.33-4.66L33.33-4.66Q33.33-3.74 31.91-2.81L31.91-2.81Q29.27-1.07 27.47-0.54L27.47-0.54Q24.07 0.46 20.34 0.46 16.6 0.46 13.15-0.87 9.69-2.2 7.25-4.59L7.25-4.59Q2.15-9.62 2.15-17.58L2.15-17.58Q2.15-21.41 3.59-24.62 5.03-27.83 7.57-30.13L7.57-30.13Q12.94-34.99 21.07-34.99L21.07-34.99Q25.63-34.99 29.1-33.42L29.1-33.42Q32.79-31.79 32.79-30.64L32.79-30.64Q32.79-30.18 32.48-29.83 32.18-29.49 31.79-29.49L31.79-29.49Q31.01-29.49 30.37-30.19 29.74-30.88 28.65-31.45 27.56-32.01 26.27-32.42L26.27-32.42Q23.63-33.23 21.47-33.23 19.31-33.23 17.9-32.93L17.9-32.93 17.9-1.64Q19.6-1.34 20.92-1.34 22.24-1.34 23.61-1.51 24.98-1.68 26.29-2.08L26.29-2.08Q29.25-2.95 30.74-4.66L30.74-4.66Q31.27-5.3 31.59-5.54 31.91-5.79 32.32-5.79ZM44.41-30.35Q41.89-30.35 40.48-31.47 39.06-32.59 39.06-34.42L39.06-34.42Q39.06-35.96 40.62-37.06L40.62-37.06Q42.28-38.23 44.14-38.23 45.99-38.23 47.01-37.87 48.02-37.5 48.73-36.91L48.73-36.91Q50.14-35.72 50.14-34.13L50.14-34.13Q50.14-32.54 48.53-31.45L48.53-31.45Q46.92-30.35 44.41-30.35ZM39.28 0L39.28-26.07 49.78-26.07 49.78 0 39.28 0ZM74.36 0.46L74.36 0.46Q70.97 0.46 67.79-1.07L67.79-1.07 67.79 7.81 57.76 7.81 57.76-26.07 67.79-26.07 67.79-24.73Q70.99-26.51 74.34-26.51 77.68-26.51 80.24-25.51 82.81-24.51 84.64-22.75L84.64-22.75Q88.42-19.04 88.42-13.26L88.42-13.26Q88.42-7.42 84.69-3.56L84.69-3.56Q80.83 0.46 74.36 0.46ZM74.29-24.73L74.29-24.73Q70.67-24.73 67.79-22.73L67.79-22.73 67.79-3.25Q71.09-1.34 74.97-1.34L74.97-1.34 75.61-1.34Q75.9-1.34 76.17-1.39L76.17-1.39 76.17-24.58Q75.24-24.73 74.29-24.73ZM114.62-26.51L114.62-26.51Q123.21-26.51 123.21-18.16L123.21-18.16 123.21 0 112.71 0 112.71-23.75Q112.27-24.05 111.55-24.05 110.83-24.05 110.05-23.71 109.27-23.36 108.42-22.75L108.42-22.75Q106.58-21.41 105.17-19.38L105.17-19.38 105.17 0 94.67 0 94.67-34.55 105.17-34.55 105.17-21.95Q109.34-26.51 114.62-26.51ZM153.85-5.93L153.85-5.93Q154.8-5.93 154.8-5.05L154.8-5.05Q154.8-4.39 153.95-3.49L153.95-3.49Q150.09 0.46 143.37 0.46L143.37 0.46Q137.34 0.46 133.22-3.17L133.22-3.17Q128.95-6.96 128.95-12.74L128.95-12.74Q128.95-18.65 132.8-22.46L132.8-22.46Q136.88-26.51 143.64-26.51L143.64-26.51Q149.06-26.51 152.75-23.22L152.75-23.22Q156.73-19.68 156.73-13.92L156.73-13.92Q156.73-13.09 156.68-12.16L156.68-12.16 140.57-12.16 140.57-1.68Q142.23-1.34 144.3-1.34L144.3-1.34Q148.7-1.34 151.8-4.25L151.8-4.25Q152.43-4.88 152.7-5.25L152.7-5.25Q153.26-5.93 153.85-5.93ZM147.33-13.94L147.33-24.27Q145.74-24.73 143.74-24.73 141.74-24.73 140.57-24.46L140.57-24.46 140.57-13.94 147.33-13.94ZM162.93 0L162.93-26.07 173.43-26.07 173.43-18.41Q175.11-22.58 177.05-24.55 178.99-26.51 180.94-26.51L180.94-26.51Q182.04-26.51 182.69-25.94 183.34-25.37 183.34-24.66 183.34-23.95 183.14-23.54 182.95-23.12 182.63-22.83L182.63-22.83Q181.97-22.22 181.38-22.22L181.38-22.22Q180.46-22.22 180.02-22.41L180.02-22.41Q179.26-22.75 178.67-22.75 178.09-22.75 177.18-21.81 176.28-20.87 175.45-19.21L175.45-19.21Q173.43-15.16 173.43-10.42L173.43-10.42 173.43 0 162.93 0ZM222.35-34.81L222.35-34.81Q223.35-34.81 223.35-33.76L223.35-33.76Q223.35-33.23 223.02-32.53 222.69-31.84 222.49-31.4L222.49-31.4 209.24 1.34 193.17-34.55 206.5-34.55 214.26-16.28 219.71-29.91Q220.59-32.1 220.86-33.08 221.13-34.06 221.44-34.44 221.76-34.81 222.35-34.81ZM244.71 0L244.71-1.61Q241.58 0.46 237.77 0.46L237.77 0.46Q232.72 0.46 229.67-2.08L229.67-2.08Q226.49-4.69 226.49-9.33L226.49-9.33Q226.49-13.43 229.64-16.06L229.64-16.06Q232.87-18.73 238.11-18.73L238.11-18.73Q241.63-18.73 244.71-17.38L244.71-17.38 244.71-24.1Q242.48-24.73 240.79-24.73 239.09-24.73 237.92-24.58 236.75-24.44 235.7-24.15L235.7-24.15Q233.43-23.51 232.26-22.44L232.26-22.44Q231.57-21.8 231.01-21.8 230.45-21.8 230.16-22.08 229.86-22.36 229.86-22.71 229.86-23.05 229.98-23.33 230.11-23.61 230.45-23.9L230.45-23.9Q231.18-24.54 232.89-25.17L232.89-25.17Q236.43-26.51 239.99-26.51L239.99-26.51Q250.83-26.51 253.84-21.34L253.84-21.34Q255.16-19.04 255.16-15.31L255.16-15.31 255.16 0 244.71 0ZM244.71-3.71L244.71-15.48Q241.63-16.97 238.58-16.97L238.58-16.97Q238.09-16.97 237.65-16.89L237.65-16.89 237.65-1.37Q237.77-1.34 237.92-1.34 238.07-1.34 238.21-1.34L238.21-1.34Q241.56-1.34 244.71-3.71L244.71-3.71ZM271.34 0.46L271.34 0.46Q262.77 0.46 262.77-7.91L262.77-7.91 262.77-26.07 273.22-26.07 273.22-2.17Q273.46-2.05 273.83-2.05L273.83-2.05 274.64-2.05Q276.59-2.05 279.27-4.69L279.27-4.69Q280.08-5.49 280.79-6.45L280.79-6.45 280.79-26.07 291.29-26.07 291.29 0 280.79 0 280.79-3.76Q276.81 0.46 271.34 0.46ZM299.27 0L299.27-34.55 309.77-34.55 309.77 0 299.27 0ZM327.78 0.46L327.78 0.46Q318.21 0.46 318.21-8.28L318.21-8.28 318.19-24.29 315.38-24.17Q314.06-24.17 314.06-25.17 314.06-26.17 315.48-26.17L315.48-26.17 317.82-26.07 318.19-26.07 318.19-29.86 328.66-34.55 328.66-26.07 331.93-26.07 334.25-26.17Q335.69-26.17 335.69-25.15L335.69-25.15Q335.69-24.68 335.29-24.43 334.88-24.17 334.37-24.17L334.37-24.17 331.34-24.29 328.66-24.29 328.66-1.34Q331.52-1.39 333.42-2.98L333.42-2.98Q334.32-3.66 334.7-4.74 335.08-5.81 335.39-6.12 335.69-6.42 336.11-6.42L336.11-6.42Q336.52-6.42 336.81-6.09 337.11-5.76 337.11-5.31 337.11-4.86 336.86-4.31 336.62-3.76 336.13-3.15L336.13-3.15Q335.03-1.78 333.59-0.98L333.59-0.98Q330.98 0.46 327.78 0.46Z" opacity="1" transform="matrix(1,0,0,1,0,0)" fill="white" class="wordmark-text-0" id="SvgjsPath2281"></path></svg></g></svg></g></svg></g></svg></g></svg></g><defs><mask></mask></defs></svg><rect width="395.52" height="54.36562349682968" fill="black" stroke="none" visibility="hidden"></rect></g></mask><linearGradient x1="0" x2="1" y1="0.548" y2="0.55" id="57312084-a5e9-44a8-97df-fb80b90bf493"><stop stop-color="#ff6cab" offset="0"></stop><stop stop-color="#7366ff" offset="1"></stop></linearGradient><rect width="395.52" height="54.36562349682968" fill="url(#57312084-a5e9-44a8-97df-fb80b90bf493)" mask="url(#1e17cbb3-59e9-411e-96ec-a7523d24e240)" data-fill-palette-color="primary"></rect></svg><rect width="395.52" height="54.36562349682968" fill="none" stroke="none" visibility="hidden"></rect></g></svg></g></svg>